<svg width="46" height="57" viewBox="0 0 46 57" fill="none" xmlns="http://www.w3.org/2000/svg">
<path fill-rule="evenodd" clip-rule="evenodd" d="M22.0002 7.90772L10.29 7.8753L10.155 56.6301L21.8652 56.6625C21.8652 56.6625 41.765 59.4584 41.838 33.0865C41.911 6.71461 22.0002 7.90772 22.0002 7.90772ZM23.9689 20.2668L18.1335 20.2506L18.0664 44.4777L23.9018 44.4939C23.9018 44.4939 33.8182 45.8833 33.8545 32.7786C33.8908 19.674 23.9689 20.2668 23.9689 20.2668Z" fill="white"/>
<rect width="18.0977" height="10.2199" transform="matrix(-0.999996 -0.00276833 -0.00276833 0.999996 18.1678 7.89709)" fill="white"/>
<rect width="18.0977" height="10.2199" transform="matrix(-0.999996 -0.00276833 -0.00276833 0.999996 18.1259 23.0139)" fill="white"/>
<path d="M39.6586 1.91884C42.1518 0.475651 45.1031 3.13839 44.0034 5.70724" stroke="white"/>
<path d="M44.1491 5.07304C46.2002 7.32127 44.2902 10.541 41.4678 9.79606" stroke="white"/>
<path d="M36.0011 4.9997C34.8577 2.21901 37.8505 -0.0337718 40.2762 1.65206" stroke="white"/>
<line x1="36.6516" y1="5.00902" x2="34.6926" y2="7.25569" stroke="white"/>
<line x1="42.1077" y1="9.76659" x2="40.1487" y2="12.0133" stroke="white"/>
<line x1="34.8048" y1="6.69016" x2="40.1005" y2="11.3078" stroke="white"/>
<line x1="34.2245" y1="7.03171" x2="39.6807" y2="11.7892" stroke="white"/>
<line x1="33.5249" y1="7.83408" x2="38.9811" y2="12.5916" stroke="white"/>
<line x1="39.8689" y1="12.3342" x2="39.0294" y2="13.2971" stroke="white"/>
<line x1="34.4127" y1="7.57677" x2="33.5731" y2="8.53963" stroke="white"/>
<line x1="39.3347" y1="4.52367" x2="36.816" y2="7.41224" stroke="white"/>
<line x1="41.3386" y1="5.1411" x2="38.2602" y2="8.67158" stroke="white"/>
<line x1="42.2232" y1="7.04235" x2="39.7045" y2="9.93092" stroke="white"/>
</svg>
