<svg width="64" height="64" viewBox="0 0 64 64" fill="none" xmlns="http://www.w3.org/2000/svg">
<circle cx="32" cy="32" r="32" fill="white"/>
<path d="M32 32C29.9833 32 28.2569 31.282 26.8208 29.8459C25.3847 28.4098 24.6666 26.6834 24.6666 24.6667C24.6666 22.65 25.3847 20.9237 26.8208 19.4875C28.2569 18.0514 29.9833 17.3334 32 17.3334C34.0166 17.3334 35.743 18.0514 37.1791 19.4875C38.6153 20.9237 39.3333 22.65 39.3333 24.6667C39.3333 26.6834 38.6153 28.4098 37.1791 29.8459C35.743 31.282 34.0166 32 32 32ZM17.3333 46.6667V41.5334C17.3333 40.4945 17.6007 39.5396 18.1354 38.6688C18.6701 37.798 19.3805 37.1334 20.2666 36.675C22.1611 35.7278 24.0861 35.0174 26.0416 34.5438C27.9972 34.0702 29.9833 33.8334 32 33.8334C34.0166 33.8334 36.0028 34.0702 37.9583 34.5438C39.9139 35.0174 41.8389 35.7278 43.7333 36.675C44.6194 37.1334 45.3298 37.798 45.8646 38.6688C46.3993 39.5396 46.6666 40.4945 46.6666 41.5334V46.6667H17.3333ZM21 43H43V41.5334C43 41.1973 42.916 40.8917 42.7479 40.6167C42.5798 40.3417 42.3583 40.1278 42.0833 39.975C40.4333 39.15 38.768 38.5313 37.0875 38.1188C35.4069 37.7063 33.7111 37.5 32 37.5C30.2889 37.5 28.593 37.7063 26.9125 38.1188C25.2319 38.5313 23.5666 39.15 21.9166 39.975C21.6416 40.1278 21.4201 40.3417 21.2521 40.6167C21.084 40.8917 21 41.1973 21 41.5334V43ZM32 28.3334C33.0083 28.3334 33.8715 27.9743 34.5896 27.2563C35.3076 26.5382 35.6666 25.675 35.6666 24.6667C35.6666 23.6584 35.3076 22.7952 34.5896 22.0771C33.8715 21.3591 33.0083 21 32 21C30.9916 21 30.1285 21.3591 29.4104 22.0771C28.6923 22.7952 28.3333 23.6584 28.3333 24.6667C28.3333 25.675 28.6923 26.5382 29.4104 27.2563C30.1285 27.9743 30.9916 28.3334 32 28.3334Z" fill="#AC0000"/>
</svg>
